<?xml version="1.0" standalone="no"?><!DOCTYPE svg PUBLIC "-//W3C//DTD SVG 1.1//EN" "http://www.w3.org/Graphics/SVG/1.1/DTD/svg11.dtd"><svg class="icon" width="16px" height="16.00px" viewBox="0 0 1024 1024" version="1.1" xmlns="http://www.w3.org/2000/svg"><path d="M668.818286 726.747429A407.917714 407.917714 0 0 1 409.6 819.2C183.369143 819.2 0 635.830857 0 409.6 0 183.369143 183.369143 0 409.6 0c226.230857 0 409.6 183.369143 409.6 409.6 0 98.377143-34.669714 188.598857-92.452571 259.218286l256.292571 256.292571c15.981714 15.981714 16.091429 41.837714 0 57.929143a40.886857 40.886857 0 0 1-57.929143 0l-256.292571-256.292571z m-259.218286 10.532571a327.68 327.68 0 1 0 0-655.36 327.68 327.68 0 0 0 0 655.36z" /></svg>